<?xml version="1.0" encoding="utf-8"?>
<!-- Uploaded to: SVG Repo, www.svgrepo.com, Generator: SVG Repo Mixer Tools -->
<svg width="800px" height="800px" viewBox="0 0 1024 1024" class="icon"  version="1.1" xmlns="http://www.w3.org/2000/svg"><path d="M670.4 212c-4.3-30.5-30.5-54-62.2-54s-57.9 23.5-62.2 54h124.4z" fill="#FFBC00" /><path d="M655.7 887.3h-370c-8.3 0-15 6.7-15 15s6.7 15 15 15h370c8.3 0 15-6.7 15-15s-6.7-15-15-15zM910.6 123.6c-69.2-27.6-128.5-18-166-5.2-40.7 13.9-65.1 34.5-66.1 35.4-1.2 1-2.1 2.1-2.9 3.3-16.9-17.9-40.9-29.2-67.5-29.2-48.2 0-88 37-92.4 84H148.9c-19.9 0-26.9 10.8-29 15.4s-5.6 17.1 7.5 32l312.3 356.3c4.5 5.1 10 9 16.1 11.5V886h30V627.2c6-2.4 11.6-6.3 16.1-11.5l312.3-356.3c13.1-15 9.6-27.4 7.5-32s-9.1-15.4-29-15.4h-92c-1.1-11.4-4.2-22.3-9.1-32.2 2.4-0.5 4.6-1.6 6.6-3.2 0.8-0.7 85.4-71.3 201.5-25.1 7.7 3.1 16.4-0.7 19.5-8.4 2.9-7.7-0.9-16.4-8.6-19.5zM608.2 158c31.7 0 57.9 23.5 62.2 54H546c4.2-30.5 30.5-54 62.2-54zM152 242h416.4l-207 238.8L152 242z m271.2 309.4l-41.8-47.7L608.1 242h83.2L423.2 551.4zM789.5 242L479.3 596c-2.4 2.7-5.4 4.2-8.5 4.2s-6.1-1.5-8.5-4.2l-19.1-21.8L731 242h58.5z" fill="#46287C" /><path d="M691.3 242h-83.2L381.4 503.6l41.8 47.8zM462.3 596c2.4 2.7 5.4 4.2 8.5 4.2s6.1-1.5 8.5-4.2l310.2-354H731L443.1 574.1l19.2 21.9zM568.4 242H152l209.3 238.8L568.4 242zM316.5 360.1c-21.7 0-39.3-17.6-39.3-39.3 0-21.7 17.6-39.3 39.3-39.3 21.7 0 39.3 17.6 39.3 39.3 0.1 21.7-17.5 39.3-39.3 39.3z" fill="#FFBC00" /><path d="M316.5 320.8m-39.3 0a39.3 39.3 0 1 0 78.6 0 39.3 39.3 0 1 0-78.6 0Z" fill="#FFFFFF" /></svg>